<svg id="Calque_1" data-name="Calque 1" xmlns="http://www.w3.org/2000/svg" viewBox="0 0 949 949"><title>logo</title><polygon points="363.37 161.19 363.37 232.75 52.73 500.28 52.73 428.72 363.37 161.19" style="fill:#27d7b7"/><polygon points="52.73 428.7 52.73 500.26 363.37 767.8 363.37 696.24 52.73 428.7" style="fill:#27d7b7"/><polygon points="585.37 765.65 585.37 694.09 896 426.56 896 498.11 585.37 765.65" style="fill:#27d7b7"/><polygon points="896 498.14 896 426.58 585.37 159.04 585.37 230.6 896 498.14" style="fill:#27d7b7"/><rect x="432.47" y="249.68" width="94.53" height="472.66" style="fill:#27d7b7"/><path d="M1074,1217.06c0,35.3-21.15,63.93-47.26,63.93s-47.27-28.63-47.27-63.93Z" transform="translate(-547 -482)" style="fill:#27d7b7"/><polygon points="432.47 233.12 479.74 143.48 527 233.12 432.47 233.12" style="fill:#27d7b7"/><circle cx="474.5" cy="474.5" r="461" style="fill:none;stroke:#27d7b7;stroke-miterlimit:10;stroke-width:27px"/></svg>